<svg width="570" height="383" viewBox="0 0 570 383" fill="none" xmlns="http://www.w3.org/2000/svg">
<path d="M2.80226 107.087V122.65H1.24033V124.282L1.24032 139.089V140.721H2.80226V353.421C2.80226 369.462 17.9937 382.485 36.8043 382.485H184.157C202.995 382.485 218.159 369.444 218.159 353.421V31.585C218.159 15.544 202.967 2.52051 184.157 2.52051H179.444V2.50656V0.875H177.503H150.528H148.587V2.50656V2.52051H43.3408C33.9832 2.52051 23.9172 5.74489 16.1845 10.9096C8.45676 16.0711 2.80226 23.3557 2.80226 31.585V56.5102H1.24033V58.1418V58.1422V58.1435V58.1487V58.1696V58.2501V58.5562V59.6483V62.963V66.8783V68.0316V68.3417V68.4222V68.4427V68.4475V68.4492V68.4496V70.0808H2.80226V90.4689H1V92.1005V98.1482V105.455V107.087H2.80226Z" stroke="black" stroke-width="0.811179" stroke-linecap="square"/>
<path fill-rule="evenodd" clip-rule="evenodd" d="M111.549 371.712C123.346 371.712 132.91 363.525 132.91 353.425C132.91 343.326 123.346 335.138 111.549 335.138C99.7513 335.138 90.1875 343.326 90.1875 353.425C90.1875 363.525 99.7513 371.712 111.549 371.712Z" fill="#DDDDDD"/>
<path d="M19.7124 325.668V55.9094H568.712V325.668H19.7124Z" fill="#DDDDDD" stroke="black"/>
<rect x="58" y="17" width="107" height="26" fill="#2C2C2C"/>
<path d="M82.24 22V36H80.28V23.74H72.16V36H70.18V22H82.24ZM91.9058 25.3C92.9324 25.3 93.8524 25.5267 94.6658 25.98C95.4791 26.4333 96.1124 27.0667 96.5658 27.88C97.0324 28.6933 97.2658 29.6333 97.2658 30.7C97.2658 31.7667 97.0324 32.7133 96.5658 33.54C96.1124 34.3533 95.4791 34.9867 94.6658 35.44C93.8524 35.8933 92.9324 36.12 91.9058 36.12C91.1458 36.12 90.4458 35.9733 89.8058 35.68C89.1791 35.3867 88.6458 34.96 88.2058 34.4V39.88H86.2858V25.4H88.1258V27.08C88.5524 26.4933 89.0924 26.0533 89.7458 25.76C90.3991 25.4533 91.1191 25.3 91.9058 25.3ZM91.7458 34.44C92.4258 34.44 93.0324 34.2867 93.5658 33.98C94.1124 33.66 94.5391 33.22 94.8458 32.66C95.1658 32.0867 95.3258 31.4333 95.3258 30.7C95.3258 29.9667 95.1658 29.32 94.8458 28.76C94.5391 28.1867 94.1124 27.7467 93.5658 27.44C93.0324 27.1333 92.4258 26.98 91.7458 26.98C91.0791 26.98 90.4724 27.14 89.9258 27.46C89.3924 27.7667 88.9658 28.2 88.6458 28.76C88.3391 29.32 88.1858 29.9667 88.1858 30.7C88.1858 31.4333 88.3391 32.0867 88.6458 32.66C88.9524 33.22 89.3791 33.66 89.9258 33.98C90.4724 34.2867 91.0791 34.44 91.7458 34.44ZM100.055 25.4H101.975V33.12L108.475 25.4H110.215V36H108.295V28.28L101.815 36H100.055V25.4ZM126.162 25.4V36H124.422V28.26L120.462 34.8H119.622L115.702 28.24V36H113.942V25.4H115.922L120.082 32.56L124.362 25.4H126.162ZM139.479 30.76C139.479 30.9067 139.466 31.1 139.439 31.34H130.839C130.959 32.2733 131.366 33.0267 132.059 33.6C132.766 34.16 133.639 34.44 134.679 34.44C135.946 34.44 136.966 34.0133 137.739 33.16L138.799 34.4C138.319 34.96 137.719 35.3867 136.999 35.68C136.292 35.9733 135.499 36.12 134.619 36.12C133.499 36.12 132.506 35.8933 131.639 35.44C130.772 34.9733 130.099 34.3267 129.619 33.5C129.152 32.6733 128.919 31.74 128.919 30.7C128.919 29.6733 129.146 28.7467 129.599 27.92C130.066 27.0933 130.699 26.4533 131.499 26C132.312 25.5333 133.226 25.3 134.239 25.3C135.252 25.3 136.152 25.5333 136.939 26C137.739 26.4533 138.359 27.0933 138.799 27.92C139.252 28.7467 139.479 29.6933 139.479 30.76ZM134.239 26.92C133.319 26.92 132.546 27.2 131.919 27.76C131.306 28.32 130.946 29.0533 130.839 29.96H137.639C137.532 29.0667 137.166 28.34 136.539 27.78C135.926 27.2067 135.159 26.92 134.239 26.92ZM148.078 25.3C149.104 25.3 150.024 25.5267 150.838 25.98C151.651 26.4333 152.284 27.0667 152.738 27.88C153.204 28.6933 153.438 29.6333 153.438 30.7C153.438 31.7667 153.204 32.7133 152.738 33.54C152.284 34.3533 151.651 34.9867 150.838 35.44C150.024 35.8933 149.104 36.12 148.078 36.12C147.318 36.12 146.618 35.9733 145.978 35.68C145.351 35.3867 144.818 34.96 144.378 34.4V39.88H142.458V25.4H144.298V27.08C144.724 26.4933 145.264 26.0533 145.918 25.76C146.571 25.4533 147.291 25.3 148.078 25.3ZM147.918 34.44C148.598 34.44 149.204 34.2867 149.738 33.98C150.284 33.66 150.711 33.22 151.018 32.66C151.338 32.0867 151.498 31.4333 151.498 30.7C151.498 29.9667 151.338 29.32 151.018 28.76C150.711 28.1867 150.284 27.7467 149.738 27.44C149.204 27.1333 148.598 26.98 147.918 26.98C147.251 26.98 146.644 27.14 146.098 27.46C145.564 27.7667 145.138 28.2 144.818 28.76C144.511 29.32 144.358 29.9667 144.358 30.7C144.358 31.4333 144.511 32.0867 144.818 32.66C145.124 33.22 145.551 33.66 146.098 33.98C146.644 34.2867 147.251 34.44 147.918 34.44Z" fill="white"/>
</svg>
