<svg width="71" height="71" viewBox="0 0 71 71" fill="none" xmlns="http://www.w3.org/2000/svg">
<g clip-path="url(#clip0)">
<path d="M70.5903 14.8339C70.1838 14.2514 69.5298 13.8914 68.8195 13.861L24.7775 11.9626C23.5138 11.9073 22.4579 12.8829 22.4038 14.1407C22.3501 15.398 23.3241 16.4603 24.5817 16.5143L65.642 18.2843L57.5687 43.4736H21.6415L15.1507 8.1318C15.008 7.35722 14.4762 6.71102 13.7428 6.42327L3.11203 2.24687C1.94038 1.78816 0.618265 2.36366 0.158122 3.53387C-0.301226 4.70473 0.274111 6.02763 1.44512 6.48778L10.8976 10.2012L17.5029 46.1633C17.702 47.2444 18.6442 48.0296 19.7439 48.0296H20.8396L18.3376 54.9794C18.1281 55.5616 18.2144 56.2081 18.5708 56.7138C18.9267 57.2197 19.5056 57.5207 20.1235 57.5207H21.8784C20.791 58.7309 20.1235 60.3244 20.1235 62.0768C20.1235 65.8453 23.1899 68.9109 26.9576 68.9109C30.7253 68.9109 33.7917 65.8453 33.7917 62.0768C33.7917 60.3246 33.1242 58.7309 32.037 57.5207H46.9371C45.8492 58.7309 45.1819 60.3244 45.1819 62.0768C45.1819 65.8453 48.2475 68.9109 52.016 68.9109C55.7847 68.9109 58.8501 65.8453 58.8501 62.0768C58.8501 60.3246 58.1828 58.7309 57.0957 57.5207H59.2299C60.2785 57.5207 61.1283 56.6708 61.1283 55.6224C61.1283 54.5738 60.2784 53.724 59.2299 53.724H22.8246L24.8746 48.029H59.2297C60.2204 48.029 61.097 47.389 61.3987 46.4464L70.8906 16.8316C71.1086 16.1557 70.9967 15.4167 70.5903 14.8339ZM26.9578 65.1149C25.2826 65.1149 23.9203 63.7528 23.9203 62.0776C23.9203 60.4024 25.2826 59.0401 26.9578 59.0401C28.6329 59.0401 29.9951 60.4024 29.9951 62.0776C29.9951 63.7528 28.6329 65.1149 26.9578 65.1149ZM52.016 65.1149C50.3408 65.1149 48.9787 63.7528 48.9787 62.0776C48.9787 60.4024 50.3408 59.0401 52.016 59.0401C53.6912 59.0401 55.0533 60.4024 55.0533 62.0776C55.0533 63.7528 53.6912 65.1149 52.016 65.1149Z" fill="black"/>
</g>
<defs>
<clipPath id="clip0">
<rect width="71" height="71" fill="white"/>
</clipPath>
</defs>
</svg>
