<svg width="75" height="74" viewBox="0 0 75 74" fill="none" xmlns="http://www.w3.org/2000/svg">
<path fill-rule="evenodd" clip-rule="evenodd" d="M37.5 21.5833C33.356 21.5833 29.3817 23.2076 26.4515 26.0988C23.5212 28.9899 21.875 32.9112 21.875 37C21.875 41.0887 23.5212 45.01 26.4515 47.9012C29.3817 50.7924 33.356 52.4166 37.5 52.4166C41.644 52.4166 45.6183 50.7924 48.5485 47.9012C51.4788 45.01 53.125 41.0887 53.125 37C53.125 32.9112 51.4788 28.9899 48.5485 26.0988C45.6183 23.2076 41.644 21.5833 37.5 21.5833ZM28.125 37C28.125 39.4532 29.1127 41.806 30.8709 43.5407C32.629 45.2754 35.0136 46.25 37.5 46.25C39.9864 46.25 42.371 45.2754 44.1291 43.5407C45.8873 41.806 46.875 39.4532 46.875 37C46.875 34.5467 45.8873 32.194 44.1291 30.4592C42.371 28.7245 39.9864 27.75 37.5 27.75C35.0136 27.75 32.629 28.7245 30.8709 30.4592C29.1127 32.194 28.125 34.5467 28.125 37Z" fill="black"/>
<path d="M56.25 15.4166C55.4212 15.4166 54.6263 15.7415 54.0403 16.3197C53.4542 16.898 53.125 17.6822 53.125 18.5C53.125 19.3177 53.4542 20.102 54.0403 20.6802C54.6263 21.2584 55.4212 21.5833 56.25 21.5833C57.0788 21.5833 57.8737 21.2584 58.4597 20.6802C59.0458 20.102 59.375 19.3177 59.375 18.5C59.375 17.6822 59.0458 16.898 58.4597 16.3197C57.8737 15.7415 57.0788 15.4166 56.25 15.4166Z" fill="black"/>
<path fill-rule="evenodd" clip-rule="evenodd" d="M15.625 3.08331C12.3098 3.08331 9.13037 4.38271 6.78617 6.69566C4.44196 9.00861 3.125 12.1456 3.125 15.4166V58.5833C3.125 61.8543 4.44196 64.9913 6.78617 67.3043C9.13037 69.6172 12.3098 70.9166 15.625 70.9166H59.375C62.6902 70.9166 65.8696 69.6172 68.2138 67.3043C70.558 64.9913 71.875 61.8543 71.875 58.5833V15.4166C71.875 12.1456 70.558 9.00861 68.2138 6.69566C65.8696 4.38271 62.6902 3.08331 59.375 3.08331H15.625ZM59.375 9.24998H15.625C13.9674 9.24998 12.3777 9.89968 11.2056 11.0562C10.0335 12.2126 9.375 13.7811 9.375 15.4166V58.5833C9.375 60.2188 10.0335 61.7873 11.2056 62.9438C12.3777 64.1003 13.9674 64.75 15.625 64.75H59.375C61.0326 64.75 62.6223 64.1003 63.7944 62.9438C64.9665 61.7873 65.625 60.2188 65.625 58.5833V15.4166C65.625 13.7811 64.9665 12.2126 63.7944 11.0562C62.6223 9.89968 61.0326 9.24998 59.375 9.24998Z" fill="black"/>
</svg>
