<svg width="71" height="71" viewBox="0 0 71 71" fill="none" xmlns="http://www.w3.org/2000/svg">
<path d="M13.6651 0.78125C10.2522 0.794549 6.98283 2.15622 4.56952 4.56952C2.15622 6.98283 0.794549 10.2522 0.78125 13.6651V57.3349C0.794549 60.7478 2.15622 64.0172 4.56952 66.4305C6.98283 68.8438 10.2522 70.2055 13.6651 70.2188H57.3349C60.7478 70.2055 64.0172 68.8438 66.4305 66.4305C68.8438 64.0172 70.2055 60.7478 70.2188 57.3349V13.6651C70.2055 10.2522 68.8438 6.98283 66.4305 4.56952C64.0172 2.15622 60.7478 0.794549 57.3349 0.78125H13.6651ZM13.6651 7.09375H57.3349C60.9962 7.09375 63.9062 10.0038 63.9062 13.6651V57.3349C63.9062 60.9962 60.9962 63.9062 57.3349 63.9062H13.6651C12.8006 63.9117 11.9436 63.7454 11.1439 63.4171C10.3442 63.0888 9.61759 62.605 9.0063 61.9937C8.395 61.3824 7.91117 60.6558 7.58286 59.8561C7.25455 59.0564 7.0883 58.1994 7.09375 57.3349V13.6651C7.09375 10.0038 10.0038 7.09375 13.6651 7.09375ZM34.6131 23.6009C32.2932 23.5788 30.3206 23.6009 29.2127 24.1438C28.471 24.5036 27.9061 25.3148 28.2501 25.3527C28.6825 25.4158 29.6546 25.6241 30.1754 26.3279C30.8382 27.2275 30.8161 29.2632 30.8161 29.2632C30.8161 29.2632 31.1854 34.8593 29.9134 35.5631C29.0392 36.0429 27.8429 35.0676 25.2548 30.6173C23.9355 28.3258 22.9381 25.7977 22.9381 25.7977C22.9381 25.7977 22.7488 25.3274 22.4079 25.0812C21.9881 24.7751 21.4073 24.6741 21.4073 24.6741L15.2306 24.7119C15.2306 24.7119 14.3058 24.7498 13.9744 25.1443C13.6651 25.5136 13.9491 26.2396 13.9491 26.2396C13.9491 26.2396 18.7813 37.5452 24.2543 43.2423C29.2727 48.4722 34.9697 48.125 34.9697 48.125H37.5579C37.5579 48.125 38.3343 48.0398 38.7288 47.62C39.1013 47.2255 39.0887 46.4837 39.0887 46.4837C39.0887 46.4837 39.0382 43.0213 40.6415 42.5037C42.2323 42.0082 44.2523 45.8557 46.4112 47.3359C48.0524 48.4564 49.296 48.2102 49.296 48.2102L55.0687 48.125C55.0687 48.125 58.0767 47.9388 56.6469 45.559C56.5364 45.3759 55.8199 43.8104 52.3702 40.6037C48.7436 37.2517 49.2265 37.7946 53.5885 31.9871C56.2397 28.4489 57.3002 26.2901 56.9657 25.3527C56.65 24.4784 54.6995 24.7119 54.6995 24.7119L48.2007 24.7498C48.2007 24.7498 47.721 24.6867 47.3643 24.8982C47.1191 25.0803 46.9237 25.3213 46.7962 25.5988C46.7962 25.5988 45.761 28.3353 44.3912 30.6678C41.5063 35.5726 40.3354 35.844 39.8683 35.5379C38.7699 34.8214 39.0413 32.6752 39.0413 31.1602C39.0413 26.3879 39.7673 24.4152 37.6368 23.9008C36.9329 23.7272 36.4153 23.6167 34.6162 23.6009H34.6131Z" fill="black"/>
</svg>
